<svg xmlns="http://www.w3.org/2000/svg" width="64" height="64" viewBox="0 0 64 64"><defs><style>.cls-1{fill:#22b573}.cls-1,.cls-4{stroke:#004924}.cls-1,.cls-2,.cls-3,.cls-4{stroke-miterlimit:10;stroke-width:2px}.cls-2,.cls-3{fill:#8c6239;stroke:#42210b}.cls-3{fill:#c69c6d}.cls-4{fill:none;stroke-linecap:round}.cls-5{fill:#33d186}</style></defs><title/><g id="Layer_28" data-name="Layer 28"><path d="M22.5,24.25h0a5.25,5.25,0,0,1,5.25,5.25V43a0,0,0,0,1,0,0H17.25a0,0,0,0,1,0,0V29.5A5.25,5.25,0,0,1,22.5,24.25Z" class="cls-1"/><path d="M41.5,24.25h0a5.25,5.25,0,0,1,5.25,5.25V43a0,0,0,0,1,0,0H36.25a0,0,0,0,1,0,0V29.5a5.25,5.25,0,0,1,5.25-5.25Z" class="cls-1"/><path d="M37.25,43.25H26.75L24.57,16.38C24.14,11.05,27,6.25,31,6.25h2c4,0,6.84,4.8,6.41,10.13Z" class="cls-1"/><polygon points="44.3 57.75 19.7 57.75 16.14 48.19 47.86 48.19 44.3 57.75" class="cls-2"/><rect width="38.25" height="5" x="12.88" y="43.25" class="cls-3" rx="1.83" ry="1.83"/><line x1="25.69" x2="21.56" y1="13" y2="9.25" class="cls-4"/><line x1="37.87" x2="42.38" y1="15.93" y2="11.82" class="cls-4"/><line x1="19.19" x2="15.06" y1="27.63" y2="23.88" class="cls-4"/><line x1="18.69" x2="14.56" y1="35" y2="31.25" class="cls-4"/><line x1="45.23" x2="49.64" y1="37.58" y2="33.55" class="cls-4"/><line x1="43.22" x2="46.59" y1="25.57" y2="22.52" class="cls-4"/><circle cx="34.75" cy="13.5" r="1.75" class="cls-5"/><circle cx="31.75" cy="29.5" r="1.75" class="cls-5"/><circle cx="28.75" cy="12.5" r="1.75" class="cls-5"/><circle cx="33.75" cy="37.5" r="1.75" class="cls-5"/><circle cx="30.75" cy="21.5" r="1.75" class="cls-5"/><circle cx="20.75" cy="30.5" r="1.75" class="cls-5"/><circle cx="41.75" cy="33.5" r="1.75" class="cls-5"/><circle cx="22.75" cy="38.5" r="1.75" class="cls-5"/><line x1="25.53" x2="22.16" y1="19.88" y2="16.81" class="cls-4"/></g></svg>