<svg xmlns="http://www.w3.org/2000/svg" width="64" height="64" viewBox="0 0 64 64"><defs><style>.cls-1{fill:#8c6239}.cls-1,.cls-3{stroke:#42210b}.cls-1,.cls-2,.cls-3,.cls-4{stroke-miterlimit:10;stroke-width:2px}.cls-2{fill:#22b573}.cls-2,.cls-4{stroke:#004924}.cls-3{fill:#c69c6d}.cls-4{fill:none;stroke-linecap:round}.cls-5{fill:#33d186}</style></defs><title/><g id="Layer_5" data-name="Layer 5"><g id="Layer_17" data-name="Layer 17"><polygon points="44.3 54.13 19.7 54.13 16.14 44.57 47.86 44.57 44.3 54.13" class="cls-1"/><path d="M41.33,39.38H22.67L20.46,28C18.83,19.64,23.34,10.88,31,10.88h2c7.66,0,12.17,8.77,10.54,17.16Z" class="cls-2"/><rect width="38.25" height="5.38" x="12.88" y="39.25" class="cls-3" rx="1.9" ry="1.9"/><line x1="25.69" x2="21.56" y1="13.63" y2="9.88" class="cls-4"/><line x1="37.87" x2="42.38" y1="15.55" y2="11.45" class="cls-4"/><line x1="22.69" x2="18.56" y1="23.63" y2="19.88" class="cls-4"/><line x1="23.69" x2="19.56" y1="35.63" y2="31.88" class="cls-4"/><line x1="42.37" x2="46.5" y1="27.35" y2="23.03" class="cls-4"/><line x1="40.75" x2="46.12" y1="34.5" y2="31.88" class="cls-4"/><circle cx="36.75" cy="22.13" r="1.75" class="cls-5"/><circle cx="29.75" cy="22.13" r="1.75" class="cls-5"/><circle cx="30.75" cy="16.13" r="1.75" class="cls-5"/><circle cx="34.75" cy="31.13" r="1.75" class="cls-5"/><circle cx="26.75" cy="30.13" r="1.75" class="cls-5"/></g></g></svg>